# Blender v2.78 (sub 0) OBJ File: ''
# www.blender.org
mtllib AxisStar.mtl
o Cube
v 0.100000 -0.100000 -0.100000
v 0.100000 -0.100000 0.100000
v -0.100000 -0.100000 0.100000
v -0.100000 -0.100000 -0.100000
v 0.100000 0.100000 -0.100000
v 0.100000 0.100000 0.100000
v -0.100000 0.100000 0.100000
v -0.100000 0.100000 -0.100000
v 0.000000 -1.000000 -0.000000
v 0.000000 0.000000 -1.000000
v -1.000000 0.000000 -0.000000
v -0.000000 1.000000 0.000000
v -0.000000 0.000000 1.000000
v 1.000000 0.000000 0.000000
vt 0.2783 0.9195
vt 0.2206 0.9103
vt 0.2783 0.5442
vt 0.3066 0.9141
vt 0.2486 0.9141
vt 0.2776 0.5411
vt 0.2536 0.3927
vt 0.2276 0.3927
vt 0.2406 0.2255
vt 0.9013 0.7821
vt 0.8614 0.7758
vt 0.9230 0.6401
vt 0.3572 0.3937
vt 0.3312 0.3937
vt 0.3442 0.2266
vt 0.8352 0.8782
vt 0.7953 0.8719
vt 0.8352 0.6184
vt 0.1245 0.3937
vt 0.0985 0.3937
vt 0.1115 0.2266
vt 0.8483 0.7831
vt 0.8081 0.7831
vt 0.8437 0.8844
vt 0.2479 0.9253
vt 0.2783 0.9103
vt 0.2479 0.5500
vt 0.3147 0.9119
vt 0.2568 0.9119
vt 0.2858 0.5390
vt 0.2639 0.9253
vt 0.2062 0.9162
vt 0.2639 0.5501
vt 0.3218 0.9208
vt 0.2639 0.9208
vt 0.2928 0.5478
vt 0.2727 0.9209
vt 0.2147 0.9209
vt 0.2437 0.5479
vt 0.2790 0.9083
vt 0.2210 0.9083
vt 0.2500 0.5353
vt 0.9436 0.8844
vt 0.9037 0.8781
vt 0.9436 0.6246
vt 0.8638 0.8908
vt 0.9037 0.8844
vt 0.8882 0.7847
vt 0.8432 0.6464
vt 0.8831 0.6401
vt 0.8614 0.7821
vt 0.9037 0.8829
vt 0.8635 0.8829
vt 0.8836 0.6246
vt 0.8236 0.6309
vt 0.8635 0.6246
vt 0.8635 0.8844
vt 0.0985 0.0625
vt 0.1243 0.0584
vt 0.1243 0.2266
vt 0.0985 0.2255
vt 0.0725 0.2255
vt 0.0855 0.0584
vt 0.3570 0.2266
vt 0.3312 0.2225
vt 0.3570 0.0584
vt 0.3054 0.2307
vt 0.3312 0.2266
vt 0.3312 0.3947
vt 0.1763 0.3947
vt 0.1505 0.3906
vt 0.1763 0.2266
vn -0.9939 -0.1104 -0.0000
vn 0.0000 0.1104 -0.9939
vn -0.1104 -0.9939 -0.0000
vn -0.9939 -0.0000 -0.1104
vn -0.1104 0.0000 -0.9939
vn 0.0000 0.9939 -0.1104
vn 0.1104 0.9939 0.0000
vn 0.0000 -0.9939 0.1104
vn 0.0000 -0.1104 0.9939
vn 0.0000 -0.1104 -0.9939
vn -0.0000 0.1104 0.9939
vn 0.9939 0.1104 0.0000
vn -0.9939 0.1104 -0.0000
vn 0.9939 -0.1104 0.0000
vn 0.0000 -0.9939 -0.1104
vn -0.0000 0.9939 0.1104
vn -0.9939 -0.0000 0.1104
vn 0.9939 0.0000 0.1104
vn 0.9939 -0.0000 -0.1104
vn -0.1104 0.0000 0.9939
vn 0.1104 -0.0000 0.9939
vn 0.1104 0.0000 -0.9939
vn -0.1104 0.9939 -0.0000
vn 0.1104 -0.9939 0.0000
usemtl Material
s off
f 3/1/1 4/2/1 9/3/1
f 5/4/2 8/5/2 12/6/2
f 4/7/3 3/8/3 11/9/3
f 4/10/4 8/11/4 10/12/4
f 8/13/5 4/14/5 11/15/5
f 8/16/6 5/17/6 10/18/6
f 5/19/7 6/20/7 14/21/7
f 3/22/8 2/23/8 13/24/8
f 2/25/9 3/26/9 9/27/9
f 4/28/10 1/29/10 9/30/10
f 7/31/11 6/32/11 12/33/11
f 6/34/12 5/35/12 12/36/12
f 8/37/13 7/38/13 12/39/13
f 1/40/14 2/41/14 9/42/14
f 1/43/15 4/44/15 10/45/15
f 6/46/16 7/47/16 13/48/16
f 7/49/17 3/50/17 13/51/17
f 2/52/18 6/53/18 13/54/18
f 5/55/19 1/56/19 10/57/19
f 3/58/20 7/59/20 11/60/20
f 6/61/21 2/62/21 14/63/21
f 1/64/22 5/65/22 14/66/22
f 7/67/23 8/68/23 11/69/23
f 2/70/24 1/71/24 14/72/24
